<mxfile host="app.diagrams.net" modified="2023-09-05T05:30:00.539Z" agent="Mozilla/5.0 (Windows NT 10.0; Win64; x64) AppleWebKit/537.36 (KHTML, like Gecko) Chrome/116.0.0.0 Safari/537.36" version="21.7.2" etag="-zIWzhyrWrnPyCaLJH4-" type="github">
  <diagram name="Страница — 1" id="5BKbv1-Y0ZA6cRonurt2">
    <mxGraphModel>
      <root>
        <mxCell id="0" />
        <mxCell id="1" parent="0" />
      </root>
    </mxGraphModel>
  </diagram>
</mxfile>
